# File created by Blade
# Date/Time:  Wed Jan 21 16:27:40 2015
# Frame Rate: 120.000 fps
#------------------------------------------------------
:FULLY-SPECIFIED
:DEGREES
1497
root 19.516966 3.843025 -7.024757 -230.585097 -19.323395 -197.175748
Spine 64.694067 3.254153 -11.463828
Head -10.080598 4.020733 -25.753385
LeftShoulder -3.883052 -29.010747 0.083278
LeftArm 16.810011 8.593961 -28.576105
LeftForeArm -6.126917 -0.000000 33.730767
LeftHand -2.049588 -0.000000 -2.535670
LeftHandThumb1 -26.253704 0.000000 33.147579
RightShoulder 2.251808 -22.373431 -11.204221
RightArm 13.433175 -13.797576 92.153685
RightForeArm -33.504888 0.000000 52.915916
RightHand 15.627291 -0.000000 -64.032587
RightHandThumb1 -24.326973 -0.000000 -32.862282
LeftUpLeg -10.261889 2.820185 42.482913
LeftLeg 11.176503 -0.000000 -0.000000
LeftFoot 28.235744 10.969515 4.216576
LeftToeBase 19.603150 -0.000000 -0.000000
RightUpLeg -84.578183 -36.746579 16.343870
RightLeg 43.393145 -0.000000 -0.000000
RightFoot 12.770796 -33.967984 8.591079
RightToeBase -0.494065 -0.000000 0.000000
1498
root 19.527886 3.842268 -7.013339 -230.513241 -19.533849 -197.241776
Spine 64.613366 3.275587 -11.268025
Head -9.828782 3.720198 -25.501449
LeftShoulder -4.101971 -28.694371 0.004198
LeftArm 16.468862 8.577752 -28.574801
LeftForeArm -6.051370 -0.000000 34.071275
LeftHand -2.096000 -0.000000 -2.471454
LeftHandThumb1 -26.253704 0.000000 33.147579
RightShoulder 2.236476 -22.553448 -11.270831
RightArm 13.504947 -13.969231 92.079989
RightForeArm -32.783863 0.000000 52.876801
RightHand 16.042778 -0.000000 -64.461102
RightHandThumb1 -24.326973 -0.000000 -32.862282
LeftUpLeg -10.011850 2.908806 42.294298
LeftLeg 10.447055 -0.000000 -0.000000
LeftFoot 27.949812 11.475388 4.217392
LeftToeBase 21.645285 -0.000000 -0.000000
RightUpLeg -85.259233 -36.514273 17.256233
RightLeg 45.773541 -0.000000 -0.000000
RightFoot 13.116413 -33.936305 7.607918
RightToeBase -0.350200 -0.000000 0.000000
1499
root 19.539197 3.843788 -7.002742 -230.456442 -19.727882 -197.296281
Spine 64.551156 3.304532 -10.995204
Head -9.563033 3.313310 -25.307485
LeftShoulder -4.259220 -28.291988 -0.145556
LeftArm 16.118224 8.751790 -28.431982
LeftForeArm -6.131058 0.000000 34.562962
LeftHand -2.244053 -0.000000 -2.032865
LeftHandThumb1 -26.253704 0.000000 33.147579
RightShoulder 2.216907 -22.579147 -11.338584
RightArm 13.347613 -14.075957 92.089592
RightForeArm -32.102337 -0.000000 52.945065
RightHand 16.285514 -0.000000 -64.800685
RightHandThumb1 -24.326973 -0.000000 -32.862282
LeftUpLeg -9.792292 3.124029 42.107688
LeftLeg 9.797189 -0.000000 -0.000000
LeftFoot 27.923565 11.876386 4.294520
LeftToeBase 20.904740 -0.000000 -0.000000
RightUpLeg -85.845029 -36.267981 18.119974
RightLeg 48.146776 -0.000000 -0.000000
RightFoot 13.478704 -33.890219 6.266838
RightToeBase 0.477689 -0.000000 -0.000000
1500
root 19.549290 3.846120 -6.991633 -230.389763 -19.962954 -197.373911
Spine 64.471617 3.308666 -10.845284
Head -9.266161 2.978435 -25.110998
LeftShoulder -4.466044 -27.976943 -0.221491
LeftArm 15.637338 9.118336 -28.269757
LeftForeArm -6.314720 -0.000000 35.129465
LeftHand -2.453615 -0.000000 -1.526216
LeftHandThumb1 -26.253704 0.000000 33.147579
RightShoulder 2.238858 -22.629350 -11.424731
RightArm 13.257676 -14.221699 92.078812
RightForeArm -31.505369 -0.000000 52.948104
RightHand 16.552341 -0.000000 -65.164942
RightHandThumb1 -24.326973 -0.000000 -32.862282
LeftUpLeg -9.599481 3.294507 41.864688
LeftLeg 9.176783 -0.000000 -0.000000
LeftFoot 27.802831 12.382005 4.394612
LeftToeBase 21.351729 -0.000000 -0.000000
RightUpLeg -86.380112 -35.986046 18.862527
RightLeg 50.451473 -0.000000 -0.000000
RightFoot 13.998538 -34.137058 4.890251
RightToeBase 1.269594 -0.000000 -0.000000
